<svg width="50" height="48" viewBox="0 0 50 48" fill="none" xmlns="http://www.w3.org/2000/svg">
<path id="package 1 (Traced)" fill-rule="evenodd" clip-rule="evenodd" d="M17.75 0.136891C17.2343 0.300829 16.3548 1.21939 16.1967 1.7592C16.0997 2.09047 16.0689 5.08956 16.0689 14.2238V26.2523L14.992 26.8609C14.3997 27.1956 13.2155 27.9646 12.3604 28.5699C11.5054 29.1751 10.7704 29.6703 10.7272 29.6703C10.6839 29.6703 10.4026 29.3136 10.1021 28.8776C9.5215 28.0354 9.2209 27.8527 8.76228 28.0635C8.52388 28.173 1.71684 32.9421 0.545118 33.8204C-0.411106 34.5372 -0.647824 34.0772 4.47277 41.4506C9.08421 48.0908 9.10669 48.1188 9.68604 47.9625C10.056 47.8627 18.3032 41.9945 18.4511 41.7258C18.6481 41.368 18.6215 41.2059 18.276 40.6563L17.9613 40.156L18.4306 39.8558C19.871 38.9345 21.8257 38.6888 24.3326 39.1138C26.3037 39.4479 28.0154 39.4324 29.4126 39.0674C30.6339 38.7483 47.6516 32.5181 48.3583 32.1313C49.3838 31.5698 49.9141 30.6769 49.9839 29.3935C50.0256 28.6262 49.9997 28.4642 49.7421 27.8851C49.4458 27.2193 48.6748 26.372 48.238 26.2321L48.0096 26.1589V14.1772C48.0096 5.0796 47.9788 2.09036 47.8818 1.7592C47.7113 1.1771 46.8409 0.299239 46.2638 0.127248C45.6739 -0.0485582 18.3041 -0.0392327 17.75 0.136891ZM27.8365 3.38946V5.085H22.7933H17.75V3.64962C17.75 2.26681 17.7595 2.2046 18.0079 1.95408L18.2658 1.69393H23.0512H27.8365V3.38946ZM34.5609 5.31708V8.94023L33.4729 7.86038C32.5379 6.9324 32.3363 6.78054 32.0393 6.78054C31.7422 6.78054 31.5406 6.9324 30.6056 7.86038L29.5176 8.94023V5.31708V1.69393H32.0393H34.5609V5.31708ZM46.0706 1.95408C46.3191 2.2046 46.3285 2.26681 46.3285 3.64962V5.085H41.2852H36.242V3.38946V1.69393H41.0273H45.8127L46.0706 1.95408ZM27.8365 9.06369C27.8365 11.3466 27.8365 11.3469 28.0945 11.607C28.2614 11.7754 28.4716 11.8672 28.6904 11.8672C28.9847 11.8672 29.2239 11.6718 30.5339 10.3618L32.0393 8.85641L33.5446 10.3618C34.8547 11.6718 35.0938 11.8672 35.3881 11.8672C35.6069 11.8672 35.8171 11.7754 35.984 11.607C36.242 11.3469 36.242 11.3466 36.242 9.06369V6.78054H41.2852H46.3285V16.3096V25.8385L45.987 25.9132C45.7992 25.9542 44.96 26.2438 44.1221 26.5568L42.5986 27.1256L39.6208 27.1264C36.8329 27.127 36.6263 27.1139 36.3839 26.9216C35.9477 26.5754 35.2891 26.421 30.9886 25.656C25.3019 24.6445 25.3685 24.6533 23.4762 24.6619C21.6403 24.6702 20.0384 24.8991 18.5643 25.3637L17.75 25.6204V16.2004V6.78054H22.7933H27.8365V9.06369ZM24.9472 26.3833C26.37 26.5145 34.9391 28.0534 35.3027 28.243C35.9423 28.5766 36.3178 29.4165 36.1344 30.1035C35.9184 30.9126 35.2915 31.3919 34.468 31.3775C34.2012 31.3728 31.9991 31.0127 29.5744 30.5773C27.1496 30.1418 25.154 29.7971 25.1399 29.8115C25.0834 29.8684 24.8662 31.3725 24.9083 31.4149C25.0313 31.539 34.0645 33.087 34.6394 33.0825C35.8297 33.073 36.8899 32.4036 37.4783 31.2901L37.8023 30.6769L42.111 29.0993C45.8863 27.7169 46.4777 27.5283 46.8898 27.5751C48.2998 27.7355 48.8403 29.4949 47.7832 30.4836C47.481 30.7663 30.057 37.187 28.8347 37.4662C27.7012 37.7251 26.1237 37.7087 24.5152 37.4215C21.7323 36.9246 19.5323 37.2388 17.5489 38.4166L16.9747 38.7575L14.368 35.0016C12.9342 32.9358 11.7611 31.2035 11.7611 31.152C11.7611 31.0255 14.6344 29.0077 15.6275 28.4369C17.5493 27.3323 19.91 26.5912 22.1463 26.3905C23.4342 26.2748 23.7622 26.2739 24.9472 26.3833ZM12.6709 35.5229C14.7421 38.5086 16.4367 41.0091 16.4367 41.0796C16.4367 41.1499 15.2783 42.0274 13.8625 43.0293C12.4467 44.0313 10.9247 45.1085 10.4803 45.4232L9.67238 45.9956L5.87827 40.5191C3.79151 37.5071 2.0748 34.9965 2.06325 34.94C2.04055 34.8288 8.58293 30.121 8.7834 30.1044C8.85043 30.0987 10.5998 32.537 12.6709 35.5229Z" fill="#FF6F61"/>
</svg>
