<svg width="50" height="50" viewBox="0 0 50 50" fill="none" xmlns="http://www.w3.org/2000/svg">
<path id="shop 1 (Traced)" fill-rule="evenodd" clip-rule="evenodd" d="M11.6667 0.134447C11.1554 0.295598 10.2834 1.19855 10.1267 1.72919C9.9475 2.33567 9.9475 10.9947 10.1267 11.6012C10.2957 12.1734 11.1586 13.0363 11.7308 13.2054C12.0096 13.2877 12.9482 13.3321 14.4131 13.3321H16.6667V14.1654V14.9988H11.139C7.80073 14.9988 5.53719 15.0385 5.42417 15.0989C5.32125 15.154 4.24083 16.7947 3.02333 18.7449L0.809688 22.2906L0.850208 23.7231C0.888229 25.0689 0.910417 25.1974 1.21771 25.8513C1.65948 26.7913 2.26156 27.4177 3.15125 27.8628C3.55323 28.0638 3.94615 28.2284 4.02437 28.2284C4.14344 28.2284 4.16667 29.5963 4.16667 36.6141V44.9998H3.16313C1.83229 44.9998 1.42156 45.1338 0.777708 45.7776C0.119479 46.4358 0 46.8271 0 48.324C0 49.4216 0.0146875 49.5033 0.255729 49.7443L0.511354 50H25H49.4886L49.7443 49.7443C49.9853 49.5033 50 49.4216 50 48.324C50 46.8271 49.8805 46.4358 49.2223 45.7776C48.5784 45.1338 48.1677 44.9998 46.8369 44.9998H45.8333V36.6141C45.8333 29.5963 45.8566 28.2284 45.9756 28.2284C46.0539 28.2284 46.4468 28.0638 46.8487 27.8628C47.7384 27.4177 48.3405 26.7913 48.7823 25.8513C49.0896 25.1974 49.1118 25.0689 49.1498 23.7231L49.1903 22.2906L46.9767 18.7449C45.7592 16.7947 44.6787 15.154 44.5758 15.0989C44.4628 15.0385 42.1993 14.9988 38.861 14.9988H33.3333V14.1654V13.3321H35.5869C37.0518 13.3321 37.9904 13.2877 38.2692 13.2054C38.8414 13.0363 39.7043 12.1734 39.8733 11.6012C40.0525 10.9947 40.0525 2.33567 39.8733 1.72919C39.7043 1.15698 38.8414 0.294036 38.2692 0.124967C37.6848 -0.0476428 12.2157 -0.03858 11.6667 0.134447ZM38.0776 1.92076L38.3333 2.17639V6.66519V11.154L38.0776 11.4096L37.822 11.6654H25H12.178L11.9224 11.4096L11.6667 11.154V6.66519V2.17639L11.9224 1.92076L12.178 1.66502H25H37.822L38.0776 1.92076ZM15.8333 2.63453C15.3221 2.79568 14.4501 3.69863 14.2933 4.22927C14.0048 5.20597 14.2082 5.98465 14.9444 6.72082C15.4816 7.25792 16.0115 7.49855 16.6574 7.49855C17.0952 7.49855 17.5 7.89898 17.5 8.33191C17.5 8.76016 17.0949 9.16528 16.6667 9.16528C16.2384 9.16528 15.8333 8.76016 15.8333 8.33191C15.8333 7.60366 14.9391 7.2375 14.4224 7.75429C13.9252 8.25139 14.1554 9.26517 14.9444 10.0543C15.4887 10.5987 16.0114 10.832 16.6863 10.832C17.9744 10.832 19.1667 9.63029 19.1667 8.33191C19.1667 7.03812 17.9744 5.83183 16.6954 5.83183C15.9391 5.83183 15.56 4.94982 16.0891 4.42084C16.6057 3.90405 17.5 4.27021 17.5 4.99847C17.5 5.72672 18.3943 6.09288 18.9109 5.57609C19.4081 5.07899 19.1779 4.06521 18.389 3.27612C17.6559 2.54317 16.8028 2.329 15.8333 2.63453ZM20.2557 2.75412L20 3.00975V6.66519V10.3206L20.2557 10.5763C20.594 10.9146 21.0727 10.9146 21.4109 10.5763C21.6573 10.33 21.6667 10.2689 21.6667 8.90954V7.49855H22.5H23.3333V8.90954C23.3333 10.2689 23.3427 10.33 23.5891 10.5763C23.7502 10.7375 23.9637 10.832 24.1667 10.832C24.3696 10.832 24.5831 10.7375 24.7443 10.5763L25 10.3206V6.66519V3.00975L24.7443 2.75412C24.406 2.41577 23.9273 2.41577 23.5891 2.75412C23.3427 3.00038 23.3333 3.06153 23.3333 4.42084V5.83183H22.5H21.6667V4.42084C21.6667 3.06153 21.6573 3.00038 21.4109 2.75412C21.2498 2.59286 21.0362 2.49838 20.8333 2.49838C20.6304 2.49838 20.4169 2.59286 20.2557 2.75412ZM27.5 2.63453C26.9887 2.79568 26.1168 3.69863 25.96 4.22927C25.8798 4.50085 25.8333 5.39379 25.8333 6.66519C25.8333 9.07215 25.8942 9.33736 26.611 10.0543C27.3745 10.8177 28.1893 11.0104 29.199 10.6664C29.7882 10.4655 30.528 9.69144 30.7095 9.08569C30.7866 8.82839 30.8333 7.91461 30.8333 6.66519C30.8333 5.41577 30.7866 4.50199 30.7095 4.24469C30.528 3.63894 29.7882 2.86485 29.199 2.66401C28.6484 2.4764 28.0354 2.46578 27.5 2.63453ZM31.9224 2.75412L31.6667 3.00975V6.66519V10.3206L31.9224 10.5763C32.2606 10.9146 32.7394 10.9146 33.0776 10.5763C33.324 10.33 33.3333 10.2689 33.3333 8.90954V7.49855H33.9398C34.8445 7.49855 35.4402 7.25417 35.9686 6.66644C36.9373 5.58901 36.9069 4.29407 35.889 3.27612C35.2307 2.61786 34.8395 2.49838 33.3426 2.49838C32.245 2.49838 32.1633 2.51307 31.9224 2.75412ZM28.9109 4.42084C29.1646 4.67439 29.1667 4.69262 29.1667 6.66519C29.1667 8.63776 29.1646 8.65599 28.9109 8.90954C28.7498 9.07079 28.5362 9.16528 28.3333 9.16528C28.1304 9.16528 27.9169 9.07079 27.7557 8.90954C27.5021 8.65599 27.5 8.63776 27.5 6.66519C27.5 4.69262 27.5021 4.67439 27.7557 4.42084C27.9169 4.25959 28.1304 4.16511 28.3333 4.16511C28.5362 4.16511 28.7498 4.25959 28.9109 4.42084ZM34.7443 4.42084C34.9055 4.58199 35 4.79554 35 4.99847C35 5.53036 34.606 5.83183 33.9109 5.83183H33.3333V4.99847V4.16511H33.9109C34.3854 4.16511 34.5344 4.21084 34.7443 4.42084ZM31.6667 14.1654V14.9988H25H18.3333V14.1654V13.3321H25H31.6667V14.1654ZM9.0625 19.1656L7.81167 21.6657H5.52042C4.26021 21.6657 3.22917 21.6427 3.22917 21.6146C3.22917 21.5864 3.91698 20.4614 4.75771 19.1145L6.28625 16.6655H8.29979H10.3133L9.0625 19.1656ZM16.25 16.735C16.25 16.7731 15.8402 17.8982 15.3394 19.2351L14.4288 21.6657H12.0577H9.68667L10.9375 19.1656L12.1883 16.6655H14.2192C15.3361 16.6655 16.25 16.6968 16.25 16.735ZM21.5202 17.0562C21.4869 17.2711 21.3653 18.2203 21.25 19.1656C21.1347 20.111 21.0131 21.0603 20.9798 21.2751L20.9192 21.6657H18.5846C17.3005 21.6657 16.25 21.6344 16.25 21.5962C16.25 21.5581 16.6598 20.4331 17.1606 19.0961L18.0712 16.6655H19.826H21.5808L21.5202 17.0562ZM26.8131 17.0562C26.8465 17.2711 26.968 18.2203 27.0833 19.1656C27.1986 20.111 27.3202 21.0603 27.3535 21.2751L27.4142 21.6657H25H22.5858L22.6465 21.2751C22.6798 21.0603 22.8014 20.111 22.9167 19.1656C23.032 18.2203 23.1535 17.2711 23.1869 17.0562L23.2475 16.6655H25H26.7525L26.8131 17.0562ZM32.8394 19.0961C33.3402 20.4331 33.75 21.5581 33.75 21.5962C33.75 21.6344 32.6995 21.6657 31.4154 21.6657H29.0808L29.0202 21.2751C28.9869 21.0603 28.8653 20.111 28.75 19.1656C28.6347 18.2203 28.5131 17.2711 28.4798 17.0562L28.4192 16.6655H30.174H31.9287L32.8394 19.0961ZM39.0625 19.1656L40.3133 21.6657H37.9423H35.5713L34.6606 19.2351C34.1598 17.8982 33.75 16.7731 33.75 16.735C33.75 16.6968 34.6639 16.6655 35.7808 16.6655H37.8117L39.0625 19.1656ZM45.2423 19.1145C46.083 20.4614 46.7708 21.5864 46.7708 21.6146C46.7708 21.6427 45.7398 21.6657 44.4796 21.6657H42.1883L40.9375 19.1656L39.6867 16.6655H41.7002H43.7137L45.2423 19.1145ZM7.5 23.9193C7.5 24.2421 7.44302 24.6991 7.37333 24.935C7.20427 25.5072 6.34135 26.3701 5.76917 26.5392C4.7925 26.8278 4.01385 26.6243 3.27771 25.8881C2.68729 25.2977 2.5 24.8235 2.5 23.9193V23.3324H5H7.5V23.9193ZM14.1667 23.9193C14.1667 24.8235 13.9794 25.2977 13.389 25.8881C12.8495 26.4276 12.3219 26.6659 11.6667 26.6659C11.0115 26.6659 10.4839 26.4276 9.94438 25.8881C9.35396 25.2977 9.16667 24.8235 9.16667 23.9193V23.3324H11.6667H14.1667V23.9193ZM20.8333 23.9193C20.8333 24.8235 20.646 25.2977 20.0556 25.8881C19.5161 26.4276 18.9885 26.6659 18.3333 26.6659C17.6781 26.6659 17.1505 26.4276 16.611 25.8881C16.0206 25.2977 15.8333 24.8235 15.8333 23.9193V23.3324H18.3333H20.8333V23.9193ZM27.5 23.9193C27.5 24.2421 27.443 24.6991 27.3733 24.935C27.2043 25.5072 26.3414 26.3701 25.7692 26.5392C24.7925 26.8278 24.0139 26.6243 23.2777 25.8881C22.6873 25.2977 22.5 24.8235 22.5 23.9193V23.3324H25H27.5V23.9193ZM34.1667 23.9193C34.1667 24.2421 34.1097 24.6991 34.04 24.935C33.8709 25.5072 33.008 26.3701 32.4358 26.5392C31.4592 26.8278 30.6805 26.6243 29.9444 25.8881C29.354 25.2977 29.1667 24.8235 29.1667 23.9193V23.3324H31.6667H34.1667V23.9193ZM40.8333 23.9193C40.8333 24.2421 40.7764 24.6991 40.7067 24.935C40.5376 25.5072 39.6747 26.3701 39.1025 26.5392C38.1258 26.8278 37.3472 26.6243 36.611 25.8881C36.0206 25.2977 35.8333 24.8235 35.8333 23.9193V23.3324H38.3333H40.8333V23.9193ZM47.5 23.9193C47.5 24.2421 47.443 24.6991 47.3733 24.935C47.2043 25.5072 46.3414 26.3701 45.7692 26.5392C44.7925 26.8278 44.0139 26.6243 43.2777 25.8881C42.6873 25.2977 42.5 24.8235 42.5 23.9193V23.3324H45H47.5V23.9193ZM8.79823 27.147C9.07437 27.4116 9.6101 27.775 9.98865 27.9544C10.6097 28.2486 10.774 28.2805 11.6667 28.2805C12.5594 28.2805 12.7236 28.2486 13.3447 27.9544C13.7232 27.775 14.2506 27.4196 14.5166 27.1648L15 26.7016L15.4834 27.1648C15.7494 27.4196 16.2768 27.775 16.6553 27.9544C17.2764 28.2486 17.4406 28.2805 18.3333 28.2805C19.226 28.2805 19.3903 28.2486 20.0114 27.9544C20.3899 27.775 20.9173 27.4196 21.1832 27.1648L21.6667 26.7016L22.1501 27.1648C22.416 27.4196 22.9434 27.775 23.322 27.9544C23.943 28.2486 24.1073 28.2805 25 28.2805C25.8927 28.2805 26.057 28.2486 26.678 27.9544C27.0566 27.775 27.584 27.4196 27.8499 27.1648L28.3333 26.7016L28.8168 27.1648C29.0827 27.4196 29.6101 27.775 29.9886 27.9544C30.6097 28.2486 30.774 28.2805 31.6667 28.2805C32.5594 28.2805 32.7236 28.2486 33.3447 27.9544C33.7232 27.775 34.2506 27.4196 34.5166 27.1648L35 26.7016L35.4834 27.1648C35.7494 27.4196 36.2768 27.775 36.6553 27.9544C37.2764 28.2486 37.4406 28.2805 38.3333 28.2805C39.226 28.2805 39.3903 28.2486 40.0114 27.9544C40.3899 27.775 40.9173 27.4196 41.1832 27.1648L41.6667 26.7016L42.1481 27.163C42.5905 27.5867 43.7272 28.2281 44.0365 28.2283C44.1396 28.2284 44.1667 29.975 44.1667 36.6141V44.9998H40.8333H37.5V39.4128C37.5 35.3306 37.4658 33.7102 37.3733 33.3969C37.2043 32.8247 36.3414 31.9618 35.7692 31.7927C35.1506 31.61 14.8494 31.61 14.2308 31.7927C13.6586 31.9618 12.7957 32.8247 12.6267 33.3969C12.5342 33.7102 12.5 35.3306 12.5 39.4128V44.9998H9.16667H5.83333V36.6386V28.2773L6.32958 28.101C6.95198 27.88 7.74125 27.3621 8.04729 26.974C8.17594 26.8109 8.28458 26.6748 8.28865 26.6716C8.29271 26.6685 8.52198 26.8823 8.79823 27.147ZM24.1667 39.1663V44.9998H19.1667H14.1667V39.422V33.8441L14.4224 33.5885L14.678 33.3328H19.4224H24.1667V39.1663ZM35.5776 33.5885L35.8333 33.8441V39.422V44.9998H30.8333H25.8333V39.1663V33.3328H30.5776H35.322L35.5776 33.5885ZM21.9224 38.5887C21.699 38.812 21.6667 38.9376 21.6667 39.583C21.6667 40.2283 21.699 40.3539 21.9224 40.5773C22.0835 40.7385 22.2971 40.833 22.5 40.833C22.7029 40.833 22.9165 40.7385 23.0776 40.5773C23.301 40.3539 23.3333 40.2283 23.3333 39.583C23.3333 38.9376 23.301 38.812 23.0776 38.5887C22.9165 38.4274 22.7029 38.3329 22.5 38.3329C22.2971 38.3329 22.0835 38.4274 21.9224 38.5887ZM26.9224 38.5887C26.699 38.812 26.6667 38.9376 26.6667 39.583C26.6667 40.2283 26.699 40.3539 26.9224 40.5773C27.0835 40.7385 27.2971 40.833 27.5 40.833C27.7029 40.833 27.9165 40.7385 28.0776 40.5773C28.301 40.3539 28.3333 40.2283 28.3333 39.583C28.3333 38.9376 28.301 38.812 28.0776 38.5887C27.9165 38.4274 27.7029 38.3329 27.5 38.3329C27.2971 38.3329 27.0835 38.4274 26.9224 38.5887ZM48.0776 46.9223C48.2876 47.1322 48.3333 47.2812 48.3333 47.7557V48.3333H25H1.66667V47.7557C1.66667 47.2812 1.7124 47.1322 1.9224 46.9223L2.17802 46.6666H25H47.822L48.0776 46.9223Z" fill="#151A32"/>
</svg>
