<svg width="42" height="50" viewBox="0 0 42 50" fill="none" xmlns="http://www.w3.org/2000/svg">
<path id="shopping-bag 1 (Traced)" fill-rule="evenodd" clip-rule="evenodd" d="M19.5834 0.108731C18.8263 0.283544 17.9494 0.641281 17.2546 1.05863C16.7119 1.3846 15.5467 2.45264 15.2664 2.88102C15.126 3.09561 14.9109 3.13039 10.3405 3.67907C7.71199 3.99459 5.48361 4.28373 5.38846 4.32164C5.29331 4.35946 5.15199 4.51453 5.07427 4.66609C4.94718 4.91419 4.96683 5.22727 5.27076 7.8056C5.45641 9.38068 5.60866 10.7464 5.60905 10.8405C5.60963 10.9774 5.52532 11.0115 5.185 11.0115C4.92308 11.0115 4.68138 11.077 4.55487 11.1825C4.44201 11.2766 3.75584 12.3428 3.03028 13.5521L1.71088 15.7507L0.857553 32.3135C0.388201 41.423 0.00238157 49.0006 5.85225e-05 49.1525C-0.00274849 49.3314 0.0954971 49.5294 0.278727 49.7144L0.561655 50H21H41.4383L41.7213 49.7144C41.9045 49.5294 42.0027 49.3314 41.9999 49.1525C41.9976 49.0006 41.6118 41.423 41.1424 32.3135L40.2891 15.7507L38.9697 13.5521C38.2442 12.3428 37.558 11.2766 37.4451 11.1825C37.2835 11.0477 37.0558 11.0115 36.3729 11.0115C35.5922 11.0115 35.5111 10.9945 35.5574 10.8405C35.7361 10.245 36.0998 8.49909 36.0998 8.23633C36.0998 7.99077 35.8331 7.51196 35.6846 7.49076C35.6734 7.48919 33.9437 7.08094 31.8409 6.58347L28.0175 5.67911L27.8116 5.03468C27.0798 2.74432 25.3154 1.00185 22.9843 0.26703C22.1087 -0.00891858 20.431 -0.0870911 19.5834 0.108731ZM22.4469 1.88882C23.3675 2.14982 24.1077 2.59667 24.8339 3.32993C25.4239 3.9257 26.0333 4.841 26.0333 5.13141C26.0333 5.17929 25.6086 5.11597 25.0895 4.9908C23.3155 4.563 23.2018 4.6315 22.8008 6.37055C22.1771 9.07629 22.2439 8.89513 21.8336 8.99304C21.627 9.04239 21.4363 9.04346 21.395 8.99548C21.3547 8.94877 21.178 7.63538 21.0023 6.07681C20.8265 4.51825 20.6248 3.12687 20.554 2.98489C20.3493 2.57468 19.9969 2.50775 18.8553 2.66194C18.3047 2.73631 17.8107 2.79767 17.7574 2.79835C17.5585 2.8009 18.56 2.23493 19.1178 2.02963C20.2488 1.61336 21.3156 1.56821 22.4469 1.88882ZM19.3921 6.78525C19.5404 8.11545 19.6801 9.2726 19.7026 9.35674C19.7364 9.48308 19.0496 9.67793 15.7498 10.4781C12.2193 11.3343 11.7253 11.4771 11.49 11.71C11.3437 11.855 11.2239 12.0562 11.2239 12.1573C11.2239 12.2582 11.3763 12.9676 11.5626 13.7337C11.749 14.4998 11.9014 15.1461 11.9014 15.1699C11.9014 15.1937 10.9915 15.2132 9.87949 15.2132H7.85766L7.80268 14.8957C7.63649 13.9355 6.75102 5.91822 6.80513 5.8635C6.8664 5.80165 18.2101 4.39933 18.8271 4.37734L19.1224 4.36679L19.3921 6.78525ZM29.4051 7.75C32.0491 8.3746 34.2272 8.89904 34.2455 8.91536C34.2638 8.93167 33.9548 10.3444 33.5588 12.0548L32.8388 15.1644L30.4081 15.1905L27.9775 15.2165L27.88 14.8485C27.8265 14.646 27.4736 13.1832 27.0962 11.5977C26.7186 10.0123 26.3445 8.6142 26.2648 8.49088C26.0195 8.11135 25.7246 8.06347 24.8694 8.26447C23.9805 8.47348 24.0158 8.51628 24.2513 7.51382C24.4503 6.66682 24.467 6.61425 24.5381 6.61425C24.5709 6.61425 26.7611 7.1253 29.4051 7.75ZM25.5609 12.4082C25.8636 13.687 26.1381 14.8412 26.1709 14.9732L26.2305 15.2132H19.9409H13.6511L13.5543 14.8468C13.5011 14.6453 13.3748 14.1198 13.2737 13.6791L13.0898 12.8778L15.9076 12.1881C17.4574 11.8088 20.0538 11.1726 21.6776 10.7744C23.3013 10.3761 24.7154 10.0577 24.8202 10.0667C24.9865 10.0811 25.0801 10.3769 25.5609 12.4082ZM5.96583 13.6997C6.03039 14.2366 6.08547 14.7968 6.08847 14.9445L6.09379 15.2132H5.07746C4.51848 15.2132 4.06113 15.1936 4.06113 15.1695C4.06113 15.1456 4.39207 14.5715 4.79657 13.894C5.71736 12.3516 5.80225 12.3375 5.96583 13.6997ZM37.2065 13.8992C37.6094 14.574 37.9389 15.1456 37.9389 15.1695C37.9389 15.1936 37.1737 15.2132 36.2385 15.2132C34.6647 15.2132 34.5417 15.2005 34.5873 15.0422C34.6144 14.9481 34.7518 14.3766 34.8927 13.7719L35.1487 12.6726H35.8115H36.4743L37.2065 13.8992ZM38.7134 17.2897C38.7135 17.4643 39.0619 24.4449 39.4876 32.802C39.9133 41.1592 40.2616 48.0738 40.2617 48.1678C40.2619 48.3301 39.2802 48.3388 21 48.3388C2.71976 48.3388 1.73808 48.3301 1.73828 48.1678C1.73837 48.0738 2.08673 41.1592 2.51243 32.802C2.93813 24.4449 3.28649 17.4643 3.28659 17.2897L3.28678 16.9721H21H38.7132L38.7134 17.2897ZM13.7405 18.8302C12.4218 19.4509 11.8376 20.941 12.4195 22.1999C12.6492 22.6967 13.2718 23.3511 13.6215 23.4631C13.8044 23.5217 13.8168 23.636 13.8626 25.6962C13.9151 28.0506 13.9932 28.5224 14.52 29.6647C15.498 31.7858 17.3245 33.2535 19.5684 33.7214C23.2415 34.4873 26.8103 32.282 27.881 28.5845C28.0564 27.9784 28.0961 27.5314 28.1372 25.6962C28.1832 23.6361 28.1956 23.5217 28.3785 23.4631C28.6906 23.3631 29.3225 22.733 29.5377 22.3072C30.4056 20.5896 29.0078 18.4845 27.1145 18.6578C25.8606 18.7725 24.9299 19.6864 24.803 20.9272C24.706 21.8767 25.2509 22.9277 26.0715 23.3738L26.4204 23.5635V25.5239C26.4204 27.7355 26.3385 28.2202 25.7843 29.2848C25.1561 30.4916 23.9596 31.4945 22.6288 31.9297C20.2015 32.7235 17.4053 31.5702 16.2157 29.2848C15.6615 28.2202 15.5796 27.7355 15.5796 25.5239V23.5635L15.9285 23.3738C16.4144 23.1096 16.8987 22.5064 17.0888 21.9285C17.4699 20.7699 16.9296 19.4799 15.8215 18.9033C15.2453 18.6033 14.2936 18.5699 13.7405 18.8302ZM15.0899 20.4381C15.3896 20.5945 15.5952 21.0432 15.513 21.3611C15.461 21.5615 15.4608 21.5615 15.2169 21.3678C14.9043 21.1196 14.5111 21.1207 14.1961 21.3709C13.9526 21.5643 13.947 21.5644 13.8888 21.3792C13.7876 21.0574 13.9463 20.6749 14.2614 20.481C14.625 20.2571 14.7327 20.2515 15.0899 20.4381ZM27.6699 20.4364C27.9844 20.6006 28.2092 21.0677 28.1161 21.3636L28.0519 21.5678L27.8039 21.3709C27.5114 21.1386 27.0306 21.1152 26.7422 21.3191C26.5629 21.4458 26.53 21.4461 26.4828 21.3218C26.3918 21.0826 26.6198 20.5911 26.8905 20.4426C27.2176 20.2632 27.3363 20.2623 27.6699 20.4364Z" fill="#151A32"/>
</svg>
