<svg width="40" height="50" viewBox="0 0 40 50" fill="none" xmlns="http://www.w3.org/2000/svg">
<path id="money 1 (Traced)" fill-rule="evenodd" clip-rule="evenodd" d="M14.5646 0.181045C14.2028 0.469588 14.1922 0.69843 14.5096 1.37684C14.807 2.01275 15.2626 3.30441 15.2626 3.51175C15.2626 3.60184 14.8667 3.61679 13.6 3.57449C11.6599 3.5097 10.536 3.29962 8.99335 2.71345C8.14532 2.39119 7.92702 2.34204 7.71239 2.42481C7.24543 2.60479 7.19551 2.90662 7.43568 4.09803C7.87238 6.2644 8.71443 8.34869 9.79599 9.94052L10.3221 10.7149L10.0023 10.7675C8.88445 10.9513 8.03236 11.9718 8.03516 13.1232C8.03718 13.9909 8.74161 14.9518 9.58165 15.2329C9.79069 15.3028 9.96089 15.386 9.95984 15.4177C9.95319 15.6152 8.48785 17.4828 6.87023 19.3554C3.95536 22.7297 3.10309 23.8889 2.07203 25.8816C0.585782 28.7544 -0.0121497 31.306 0.000186748 34.7246C0.00731875 36.7289 0.147453 37.6947 0.666258 39.317C2.44193 44.8689 7.92259 48.7766 15.3343 49.7754C19.4251 50.3266 23.9783 49.8497 27.5722 48.4936C33.2013 46.3696 36.6621 42.4516 37.5771 37.1674C37.6742 36.606 37.7296 35.7048 37.7302 34.6757C37.7324 30.6917 36.7087 27.2941 34.4932 23.9322C33.667 22.6784 33.1326 22.0049 31.2025 19.785C29.7166 18.0761 28.5729 16.6901 28.5665 16.5906C28.5644 16.5591 30.0266 16.8775 31.8156 17.2979C37.9007 18.7281 37.7162 18.694 38.3449 18.5087C40.4478 17.8889 40.5829 14.9299 38.5429 14.1697C38.2751 14.0699 37.4067 13.8415 36.6131 13.6619L35.17 13.3355L36.1142 13.0375C37.1913 12.6975 37.6833 12.3443 37.9979 11.6856C38.2561 11.1445 38.2666 10.2577 38.0209 9.70943C37.6609 8.90604 36.6763 8.32622 35.817 8.41172C35.5643 8.43683 33.8482 8.88542 32.0036 9.40858L28.6497 10.3598L28.2802 9.93759L27.9107 9.51537L28.5281 8.26613C30.4085 4.46151 31.4555 1.36316 31.1554 0.490499C30.9797 -0.0203396 30.7462 -0.062942 29.4133 0.173326C27.4156 0.527238 26.0913 0.667748 24.1294 0.733802C21.6007 0.818909 18.0745 0.561535 15.8461 0.129257C14.9117 -0.0519983 14.8539 -0.0496532 14.5646 0.181045ZM29.623 1.67995C29.623 1.69685 29.4755 2.16958 29.2952 2.73035C28.8576 4.09138 28.1084 5.86573 27.2201 7.64487L26.4907 9.10577L25.9632 9.28741C25.3918 9.48401 24.792 10.0009 24.6056 10.457L24.4915 10.7363H23.459H22.4264L21.9865 9.73474C21.0325 7.56279 20.5204 5.87179 20.4108 4.53157C20.3018 3.1981 20.0929 3.02241 18.8926 3.25516C18.4795 3.33529 17.8274 3.42977 17.4434 3.46505L16.7453 3.52915L16.5315 2.67309C16.4139 2.20232 16.3366 1.79789 16.3597 1.77443C16.3829 1.75098 16.937 1.79964 17.5911 1.8826C21.3789 2.36325 25.0273 2.3526 28.2331 1.85163C29.5363 1.6479 29.623 1.63725 29.623 1.67995ZM11.75 4.92926C13.262 5.16182 16.0982 5.16084 17.71 4.92721C18.9484 4.74771 19.0167 4.76432 19.0199 5.24556C19.0247 5.98426 20.0185 9.07088 20.6652 10.3562L20.8565 10.7363H16.5263H12.1961L11.702 10.0988C10.3918 8.40869 9.43303 6.42406 9.05128 4.61238L8.98593 4.30244L9.79233 4.52737C10.2358 4.65108 11.1168 4.83194 11.75 4.92926ZM36.5863 10.1578C36.679 10.2729 36.755 10.5113 36.755 10.6874C36.755 11.2887 36.5831 11.384 34.3448 12.0237L32.2734 12.6158L31.5016 12.4602C30.1718 12.1922 28.9405 11.8841 28.9917 11.8323C29.0187 11.805 30.5488 11.3505 32.3918 10.8225C35.9251 9.81027 36.2629 9.75672 36.5863 10.1578ZM27.0138 10.7815C27.1639 10.8602 27.3134 10.9956 27.3464 11.0827C27.3793 11.1696 27.4063 12.0808 27.4063 13.1075C27.4063 14.8895 27.3967 14.9844 27.1967 15.2004C26.899 15.5215 26.36 15.5092 26.0496 15.1742C25.8191 14.9252 25.816 14.8973 25.816 13.0395C25.816 11.0452 25.8425 10.9173 26.2945 10.7316C26.5819 10.6135 26.7103 10.6224 27.0138 10.7815ZM24.3221 13.0293V13.8566L20.477 13.8843C16.8523 13.9104 16.6203 13.9226 16.4291 14.0981C16.1645 14.341 16.1594 14.87 16.4191 15.1333C16.6055 15.3223 16.7403 15.3287 20.5008 15.3287H24.3897L24.685 15.8104C25.1 16.4872 25.6386 16.8253 26.3815 16.8752L26.9726 16.915L27.5203 17.6608C27.8215 18.071 28.8141 19.2641 29.7261 20.3121C32.5693 23.5793 33.4346 24.7637 34.4355 26.759C35.6979 29.2757 36.2809 31.7449 36.2815 34.578C36.282 37.5395 35.611 39.7988 34.0757 42.0041C29.484 48.6001 17.0495 50.613 8.51609 46.1419C2.81222 43.1534 0.423095 37.7878 1.77904 31.0115C2.19251 28.9452 3.15687 26.672 4.44121 24.7362C5.22631 23.5527 5.85575 22.76 7.64434 20.7024C10.0521 17.9324 10.4596 17.41 11.2186 16.1209L11.6564 15.3776L12.7244 15.3501C13.6461 15.3263 13.8162 15.296 13.9653 15.129C14.2034 14.8623 14.1853 14.3886 13.9269 14.1263C13.7262 13.9227 13.6218 13.9105 11.8509 13.8818C10.1525 13.8544 9.96793 13.8345 9.78231 13.6592C9.36441 13.2645 9.45558 12.5879 9.96176 12.3284C10.1494 12.2322 11.765 12.2045 17.2624 12.2034L24.3221 12.202V13.0293ZM33.4781 14.4477C35.837 14.9899 37.9089 15.4976 38.0824 15.576C38.3937 15.7167 38.5862 16.0371 38.5862 16.4144C38.5862 16.7223 38.1585 17.0873 37.7954 17.0894C37.6207 17.0904 35.5329 16.6407 33.1558 16.09L28.8338 15.0888L28.89 14.7446C28.9209 14.5554 28.9467 14.1711 28.9473 13.8905C28.948 13.5265 28.9827 13.3923 29.0688 13.4212C29.1351 13.4436 31.1192 13.9055 33.4781 14.4477ZM18.1057 18.79C17.9467 18.8622 17.7188 19.0164 17.5992 19.1326C17.1275 19.5906 17.0474 19.8236 16.9974 20.8848L16.9492 21.9064L16.4444 22.0801C15.1059 22.5403 13.8293 23.5664 13.1652 24.7157C11.7503 27.1646 12.1428 30.1735 14.1343 32.1428C15.3916 33.3861 16.7796 33.8889 18.9731 33.8954C20.0726 33.8987 20.5069 34.0465 21.017 34.5909C21.8355 35.4641 21.8078 36.7249 20.9507 37.6217C20.3775 38.2215 20.0133 38.3142 18.3885 38.274C17.2686 38.2462 17.0728 38.2164 16.8354 38.0378C16.4004 37.7106 16.1581 37.2651 16.0844 36.6571C15.998 35.9448 15.721 35.4375 15.2297 35.0924C14.9039 34.8634 14.7475 34.8223 14.2036 34.8223C13.6648 34.8223 13.4976 34.8654 13.1612 35.0911C12.5695 35.4881 12.3261 36.0247 12.3453 36.8901C12.3801 38.4527 13.0404 39.8104 14.2723 40.8524C14.7804 41.2821 15.8957 41.9057 16.1584 41.907C16.2223 41.9073 16.4372 41.9533 16.636 42.0093L16.9974 42.111V42.9401C16.9974 44.1451 17.2443 44.6622 18.0084 45.0575C18.4728 45.2978 19.2433 45.32 19.65 45.1047C19.9761 44.9322 20.3818 44.5142 20.5731 44.1538C20.6444 44.0194 20.7256 43.4716 20.7535 42.9363L20.8043 41.9631L21.2103 41.8444C22.6055 41.436 23.9906 40.2667 24.6801 38.9151C26.1179 36.0966 25.2806 32.7598 22.7071 31.0516C21.5837 30.3057 20.3197 29.9924 18.4159 29.9873C17.3762 29.9846 16.687 29.5837 16.3127 28.7641C16.0807 28.2562 16.0803 27.4187 16.3118 26.9021C16.5638 26.3396 17.2031 25.8168 17.805 25.6808C18.0788 25.619 18.7951 25.5846 19.4144 25.6034C20.4151 25.6338 20.5669 25.6626 20.8856 25.8816C21.4387 26.2619 21.6232 26.7505 21.6257 27.8423C21.6281 28.8841 21.7832 29.3539 22.2816 29.8285C23.1309 30.6373 24.6681 30.3446 25.1779 29.2771C25.3508 28.9151 25.3823 28.6712 25.3823 27.697C25.3823 26.9631 25.3269 26.3271 25.2295 25.9446C25.0347 25.179 24.5036 24.1507 24.0085 23.5804C23.3356 22.8054 22.0626 22.0623 21.1558 21.9152L20.7561 21.8504V21.0293C20.7561 19.8343 20.4674 19.2485 19.6757 18.8369C19.2584 18.6199 18.5281 18.5981 18.1057 18.79ZM19.2107 20.3056C19.2656 20.4096 19.3105 20.9983 19.3105 21.6139C19.3105 23.0541 19.3533 23.1172 20.4499 23.2951C22.6911 23.659 23.9366 25.2078 23.9366 27.6312C23.9366 28.6274 23.8686 28.813 23.5029 28.813C23.1416 28.813 23.0692 28.6252 23.0692 27.6876C23.0692 26.059 22.5758 25.1274 21.3882 24.5137L20.7264 24.1717H19.0788C17.4381 24.1717 17.4284 24.173 16.8043 24.4728C16.034 24.843 15.3137 25.5539 14.9812 26.2723C14.7632 26.7434 14.7325 26.9369 14.7325 27.8359C14.7325 28.7728 14.7563 28.9085 15.0071 29.3993C15.7898 30.9315 17.009 31.5463 19.2688 31.5482C20.6817 31.5494 21.7265 31.9685 22.6224 32.8936C23.2148 33.5051 23.5348 34.0748 23.7571 34.9134C24.4334 37.465 22.9067 39.9557 20.2908 40.5683C19.3375 40.7917 19.3105 40.8391 19.3105 42.2929C19.3105 43.6308 19.2656 43.7629 18.8111 43.7629C18.4788 43.7629 18.4568 43.6762 18.4216 42.2264C18.3888 40.8804 18.3099 40.7608 17.3726 40.637C16.2513 40.4889 15.5119 40.1119 14.7961 39.3235C13.819 38.247 13.4283 36.2391 14.1961 36.2391C14.4586 36.2391 14.5851 36.4521 14.6824 37.0575C14.86 38.164 15.4306 38.9714 16.3836 39.4649C16.832 39.6971 16.9297 39.7079 18.5876 39.7079H20.3224L20.9489 39.4055C21.7458 39.0209 22.3444 38.4136 22.7216 37.6071C22.9845 37.0449 23.0187 36.8709 23.0198 36.0925C23.0208 35.3415 22.9834 35.1316 22.7629 34.6549C22.4131 33.8981 22.0565 33.4617 21.4548 33.0539C20.7568 32.5809 20.2419 32.4564 18.7322 32.3956C17.3021 32.3382 16.6411 32.1676 15.8487 31.6514C13.921 30.3959 13.2304 27.7845 14.2816 25.726C14.9094 24.4966 16.0871 23.6095 17.4508 23.3385C18.3399 23.1619 18.3885 23.0754 18.4273 21.5968C18.4451 20.9171 18.5046 20.306 18.5596 20.2388C18.7114 20.053 19.0983 20.0928 19.2107 20.3056Z" fill="#151A32"/>
</svg>
