<svg xmlns="http://www.w3.org/2000/svg" width="500" height="500" style="width:100%;height:100%;transform:translate3d(0,0,0);content-visibility:visible" viewBox="0 0 500 500"><defs><clipPath id="a"><path d="M0 0h500v500H0z"/></clipPath><clipPath id="c"><path d="M0 0h500v500H0z"/></clipPath><clipPath id="b"><path d="M0 0h500v500H0z"/></clipPath></defs><g clip-path="url(#a)"><g clip-path="url(#b)" opacity="0" style="display:block"><path fill="#FFC638" d="M60.045-6.77V96.997a3 3 0 0 1-2.973 3l-19.207.173h-74.72l-23.19-.2v-200.14h66.38l53.71 93.4z" opacity="1" style="display:block" transform="translate(376.755 254.23)"/><path fill="#EBE6EE" d="M4.68-33.929h-48.379v67.858h87.398L4.68-33.929z" opacity="1" style="display:block" transform="translate(393.102 213.531)"/><g opacity=".5" style="mix-blend-mode:multiply;display:block"><path fill="#FFC638" d="M60.05-3.5h-120.1v7h120.1v-7z" opacity="1" style="mix-blend-mode:multiply" transform="translate(376.76 299.83)"/></g><path fill="#EBE6EE" d="M126.76-117.185v237.17l-163.11.2-87.417-.193a3 3 0 0 1-2.993-3v-234.177a3 3 0 0 1 3-3h247.52a3 3 0 0 1 3 3z" opacity="1" style="display:block" transform="translate(189.95 234.215)"/><g opacity=".5" style="mix-blend-mode:multiply;display:block"><path fill="#EBE6EE" d="M7.137-120.085v240.17H-4.137a3 3 0 0 1-3-3v-234.17a3 3 0 0 1 3-3H7.137z" opacity="1" style="mix-blend-mode:multiply" transform="translate(70.327 234.115)"/></g><g opacity=".5" style="mix-blend-mode:multiply;display:block"><path fill="#EBE6EE" d="M126.76-3.5v7h-253.52v-7h253.52z" opacity="1" style="mix-blend-mode:multiply" transform="translate(189.95 157.55)"/></g><g fill="#636D78" opacity="1" style="display:block"><path d="M433.8 354.4H66.19a3 3 0 0 1-3-3v-21.34H436.8v21.34a3 3 0 0 1-3 3z" opacity="1"/><path d="M7.14-12.17v24.34H-4.14c-1.65 0-3-1.35-3-3v-21.34H7.14z" opacity=".5" style="mix-blend-mode:multiply" transform="translate(70.33 342.23)"/></g><g opacity=".5" style="mix-blend-mode:multiply;display:block"><path fill="#EBE6EE" d="M126.76-3.5v7h-253.52v-7h253.52z" opacity="1" style="mix-blend-mode:multiply" transform="translate(189.95 299.83)"/></g><path fill="#393346" d="M31.858 0c0 17.595-14.263 31.858-31.858 31.858S-31.858 17.595-31.858 0-17.595-31.858 0-31.858 31.858-17.595 31.858 0z" opacity="1" style="display:block" transform="translate(376.761 354.113)"/><g opacity=".5" style="mix-blend-mode:multiply;display:block"><path fill="#393346" d="M8.172 0A8.173 8.173 0 0 1-8.172 0 8.173 8.173 0 0 1 8.172 0z" opacity="1" style="mix-blend-mode:multiply" transform="translate(376.762 354.113)"/></g><path fill="#393346" d="M31.858 0c0 17.595-14.263 31.858-31.858 31.858S-31.858 17.595-31.858 0-17.595-31.858 0-31.858 31.858-17.595 31.858 0z" opacity="1" style="display:block" transform="translate(121.739 354.113)"/><g opacity=".5" style="mix-blend-mode:multiply;display:block"><path fill="#393346" d="M8.172 0A8.172 8.172 0 1 1-8.173 0 8.172 8.172 0 0 1 8.172 0z" opacity="1" style="mix-blend-mode:multiply" transform="translate(121.739 354.113)"/></g><path fill="none" stroke="#393346" stroke-linecap="round" stroke-linejoin="round" stroke-width="7" d="M0 0" opacity="1" style="display:block" transform="translate(250 250)"/></g><g clip-path="url(#c)" style="display:block"><path fill="#FFC638" d="M60.045-6.77V96.997a3 3 0 0 1-2.973 3l-19.207.173h-74.72l-23.19-.2v-200.14h66.38l53.71 93.4z" style="display:block" transform="translate(376.755 254.23)"/><path fill="#EBE6EE" d="M4.68-33.929h-48.379v67.858h87.398L4.68-33.929z" style="display:block" transform="translate(393.102 213.531)"/><g opacity=".5" style="mix-blend-mode:multiply;display:block"><path fill="#FFC638" d="M60.05-3.5h-120.1v7h120.1v-7z" opacity="1" style="mix-blend-mode:multiply" transform="translate(376.76 299.83)"/></g><path fill="#EBE6EE" d="M126.76-117.185v237.17l-163.11.2-87.417-.193a3 3 0 0 1-2.993-3v-234.177a3 3 0 0 1 3-3h247.52a3 3 0 0 1 3 3z" style="display:block" transform="translate(189.95 234.215)"/><g opacity=".5" style="mix-blend-mode:multiply;display:block"><path fill="#EBE6EE" d="M7.137-120.085v240.17H-4.137a3 3 0 0 1-3-3v-234.17a3 3 0 0 1 3-3H7.137z" opacity="1" style="mix-blend-mode:multiply" transform="translate(70.327 234.115)"/></g><g opacity=".5" style="mix-blend-mode:multiply;display:block"><path fill="#EBE6EE" d="M126.76-3.5v7h-253.52v-7h253.52z" opacity="1" style="mix-blend-mode:multiply" transform="translate(189.95 157.55)"/></g><g fill="#636D78" style="display:block"><path d="M433.8 354.4H66.19a3 3 0 0 1-3-3v-21.34H436.8v21.34a3 3 0 0 1-3 3z"/><path d="M7.14-12.17v24.34H-4.14c-1.65 0-3-1.35-3-3v-21.34H7.14z" opacity=".5" style="mix-blend-mode:multiply" transform="translate(70.33 342.23)"/></g><g opacity=".5" style="mix-blend-mode:multiply;display:block"><path fill="#EBE6EE" d="M126.76-3.5v7h-253.52v-7h253.52z" opacity="1" style="mix-blend-mode:multiply" transform="translate(189.95 299.83)"/></g><path fill="#393346" d="M31.858 0c0 17.595-14.263 31.858-31.858 31.858S-31.858 17.595-31.858 0-17.595-31.858 0-31.858 31.858-17.595 31.858 0z" style="display:block" transform="translate(376.761 354.113)"/><g opacity=".5" style="mix-blend-mode:multiply;display:block"><path fill="#393346" d="M8.172 0A8.173 8.173 0 0 1-8.172 0 8.173 8.173 0 0 1 8.172 0z" opacity="1" style="mix-blend-mode:multiply" transform="translate(376.762 354.113)"/></g><path fill="#393346" d="M31.858 0c0 17.595-14.263 31.858-31.858 31.858S-31.858 17.595-31.858 0-17.595-31.858 0-31.858 31.858-17.595 31.858 0z" style="display:block" transform="translate(121.739 354.113)"/><g opacity=".5" style="mix-blend-mode:multiply;display:block"><path fill="#393346" d="M8.172 0A8.172 8.172 0 1 1-8.173 0 8.172 8.172 0 0 1 8.172 0z" opacity="1" style="mix-blend-mode:multiply" transform="translate(121.739 354.113)"/></g><path fill="none" stroke="#393346" stroke-linecap="round" stroke-linejoin="round" stroke-width="7" d="M0 0" style="display:block" transform="translate(250 250)"/></g><g class="com" style="display:none"><path/><path/><path/><path/><path/><path/><path/><path/><path/><path/><path/><path/></g></g></svg>